<svg
   id="Layer_1"
   data-name="Layer 1"
   width="56"
   height="56"
   viewBox="0 0 56 56"
   version="1.1"
   sodipodi:docname="logo_creality.svg"
   xmlns:inkscape="http://www.inkscape.org/namespaces/inkscape"
   xmlns:sodipodi="http://sodipodi.sourceforge.net/DTD/sodipodi-0.dtd"
   xmlns="http://www.w3.org/2000/svg"
   xmlns:svg="http://www.w3.org/2000/svg">
  <sodipodi:namedview
     id="namedview240"
     pagecolor="#ffffff"
     bordercolor="#666666"
     borderopacity="1.0"
     inkscape:showpageshadow="2"
     inkscape:pageopacity="0.0"
     inkscape:pagecheckerboard="0"
     inkscape:deskcolor="#d1d1d1"
     showgrid="false" />
  <defs
     id="defs227">
    <style
       id="style182">
      .cls-1 {
        fill: url(#linear-gradient-3);
      }

      .cls-1, .cls-2 {
        fill-rule: evenodd;
      }

      .cls-1, .cls-2, .cls-3, .cls-4 {
        stroke-width: 0px;
      }

      .cls-2 {
        fill: url(#linear-gradient);
      }

      .cls-3 {
        fill: url(#linear-gradient-2);
      }

      .cls-4 {
        fill: #fff;
        opacity: 0;
      }
    </style>
    <linearGradient
       id="linear-gradient-2"
       x1="28"
       y1="44.608002"
       x2="28.002001"
       y2="34.222"
       gradientUnits="userSpaceOnUse">
      <stop
         offset="0"
         stop-color="#8bb034"
         id="stop201"
         style="stop-color:var(--v-primary-base, #2196F3);stop-opacity:1;" />
      <stop
         offset="0.20200001"
         stop-color="#87ad33"
         id="stop203"
         style="stop-color:var(--v-primary-darken2, #2E75AE);stop-opacity:1;" />
      <stop
         offset="0.38100001"
         stop-color="#7ca533"
         id="stop205"
         style="stop-color:var(--v-primary-darken2, #2E75AE);stop-opacity:1;" />
      <stop
         offset="0.55199999"
         stop-color="#6a9832"
         id="stop207"
         style="stop-color:var(--v-primary-darken2, #2E75AE);stop-opacity:1;" />
      <stop
         offset="0.71700001"
         stop-color="#508632"
         id="stop209"
         style="stop-color:var(--v-primary-darken2, #2E75AE);stop-opacity:1;" />
      <stop
         offset="0.87800002"
         stop-color="#306e31"
         id="stop211"
         style="stop-color:var(--v-primary-darken2, #2E75AE);stop-opacity:1;" />
      <stop
         offset="1"
         stop-color="#125930"
         id="stop213"
         style="stop-color:var(--v-primary-darken2, #2E75AE);stop-opacity:1;" />
    </linearGradient>
  </defs>
  <rect
     class="cls-4"
     width="56"
     height="56"
     id="rect229"
     x="0"
     y="0" />
  <g
     id="g237">
    <path
       class="cls-2"
       d="m 47.869,43.265 c -0.035,-0.08 -1.131,-2.107 -2.435,-4.504 -3.689,-6.778 -11.028,-20.27 -13.546,-24.902 -0.539,-0.993 -1.026,-1.882 -1.082,-1.975 -0.607,-1.028 -1.681,-1.647 -2.832,-1.631 -0.108,10e-4 -0.222,0.006 -0.252,0.009 -1.04,0.121 -1.875,0.63 -2.433,1.484 -0.064,0.098 -0.535,0.948 -1.046,1.889 -2.339,4.303 -7.668,14.1 -13.713,25.211 -1.307,2.402 -2.397,4.428 -2.424,4.501 -0.159,0.444 -0.136,0.945 0.061,1.381 0.121,0.266 0.368,0.564 0.596,0.718 0.284,0.191 0.559,0.281 0.911,0.295 0.407,0.017 0.119,0.124 4.694,-1.748 8.877,-3.633 10.629,-4.348 10.846,-4.426 0.481,-0.174 1.13,-0.33 1.667,-0.401 1.357,-0.18 2.766,-0.027 4.007,0.435 0.12,0.045 3.509,1.428 7.531,3.074 4.022,1.646 7.372,3.008 7.444,3.027 0.102,0.027 0.194,0.035 0.421,0.034 0.26,0 0.307,-0.006 0.457,-0.052 0.212,-0.065 0.453,-0.19 0.608,-0.316 0.258,-0.21 0.491,-0.566 0.592,-0.903 0.04,-0.135 0.052,-0.217 0.059,-0.429 0.011,-0.311 -0.027,-0.536 -0.13,-0.771 z m -11.721,-8.81 c -0.054,0.261 -0.202,0.455 -0.427,0.562 -0.163,0.077 -0.37,0.092 -0.529,0.038 -0.057,-0.019 -1.097,-0.601 -2.312,-1.292 -1.215,-0.692 -2.296,-1.303 -2.403,-1.358 -0.542,-0.281 -1.119,-0.473 -1.699,-0.565 -0.261,-0.041 -1.011,-0.057 -1.304,-0.028 -0.455,0.045 -1.002,0.18 -1.407,0.346 -0.38,0.156 -0.718,0.34 -2.906,1.585 -1.214,0.691 -2.258,1.277 -2.319,1.301 -0.153,0.062 -0.38,0.054 -0.54,-0.02 -0.354,-0.162 -0.542,-0.592 -0.416,-0.949 0.013,-0.036 1.467,-3.028 3.231,-6.649 1.764,-3.621 3.332,-6.84 3.483,-7.154 0.312,-0.644 0.39,-0.774 0.563,-0.933 0.291,-0.266 0.676,-0.381 1.055,-0.313 0.277,0.05 0.503,0.175 0.705,0.392 0.145,0.155 0.167,0.196 0.614,1.116 0.202,0.417 1.768,3.632 3.479,7.144 3.433,7.046 3.187,6.515 3.134,6.775 z"
       id="path231"
       style="fill:var(--v-primary-base, #2196F3);fill-opacity:1" />
    <path
       class="cls-3"
       d="m 26.851,34.093 -5.479,3.228 c -2.105,1.263 -4.038,2.423 -4.296,2.578 -0.257,0.155 -0.809,0.487 -1.225,0.738 -1.668,1.002 -4.248,2.555 -4.442,2.673 -3.0029708,1.704833 -2.7606933,1.506138 -3.0176933,1.660138 l 0.051014,0.08915 0.6450702,0.412958 L 10.114155,45.63983 15.85,43.381 c 0.891,-0.343 2.755,-1.06 4.144,-1.594 1.389,-0.534 3.08,-1.185 3.759,-1.446 1.356,-0.522 1.514,-0.579 1.927,-0.69 0.468,-0.127 0.909,-0.208 1.439,-0.267 0.395,-0.044 1.362,-0.044 1.758,0 0.646,0.071 1.205,0.186 1.767,0.363 0.18,0.057 0.912,0.328 1.627,0.604 0.715,0.275 2.407,0.926 3.759,1.446 1.353,0.52 3.197,1.229 4.099,1.576 l 5.565998,2.185041 1.108556,-0.004 0.78139,-0.49475 L 45.121,43.629 c -0.336,-0.202 -1.023,-0.616 -1.527,-0.92 -0.966,-0.583 -1.581,-0.953 -2.852,-1.716 -0.427,-0.256 -1.05,-0.631 -1.384,-0.832 -0.656,-0.395 -8.261,-5.054 -8.4,-5.137 0,0 -1.24,-0.737 -1.966,-1.154 -0.239,-0.137 -1.055,-0.526 -2.142,0.222 z"
       id="path233"
       sodipodi:nodetypes="ccccccccccsccccccccccccccccccc"
       style="fill:url(#linear-gradient-2)" />
    <path
       class="cls-1"
       d="m 33.207,25.075 c -1.779,-4.886 -3.406,-9.357 -3.616,-9.937 -0.464,-1.279 -0.487,-1.337 -0.638,-1.552 -0.21,-0.301 -0.445,-0.475 -0.733,-0.545 -0.394,-0.095 -0.794,0.064 -1.096,0.435 -0.18,0.22 -0.261,0.401 -0.585,1.297 -0.158,0.436 -1.787,4.914 -3.621,9.95 -1.834,5.036 -3.345,9.197 -3.358,9.248 -0.131,0.496 0.065,1.094 0.433,1.32 0.166,0.102 0.71,0.171 0.87,0.085 0.052,-0.028 3.669,-2.34 5.301,-3.257 -0.034,0.013 -0.069,0.026 -0.102,0.039 -0.38,0.156 -0.718,0.34 -2.906,1.585 -1.214,0.691 -2.258,1.277 -2.319,1.301 -0.153,0.062 -0.38,0.054 -0.54,-0.02 -0.354,-0.162 -0.542,-0.592 -0.416,-0.949 0.013,-0.036 1.467,-3.028 3.231,-6.649 1.764,-3.621 3.332,-6.84 3.483,-7.154 0.312,-0.644 0.39,-0.774 0.563,-0.933 0.291,-0.266 0.676,-0.381 1.055,-0.313 0.277,0.05 0.503,0.175 0.705,0.392 0.145,0.155 0.167,0.196 0.614,1.116 0.202,0.417 1.768,3.632 3.479,7.144 3.433,7.046 3.187,6.515 3.134,6.775 -0.054,0.261 -0.202,0.455 -0.427,0.562 -0.163,0.077 -0.37,0.092 -0.529,0.038 -0.057,-0.019 -1.097,-0.601 -2.312,-1.292 -1.215,-0.692 -2.296,-1.303 -2.403,-1.358 -0.158,-0.082 -0.319,-0.155 -0.481,-0.221 1.638,0.944 5.056,3.211 5.103,3.232 0.165,0.075 0.758,-0.029 0.927,-0.137 0.234,-0.148 0.388,-0.419 0.444,-0.781 0.056,-0.361 0.311,0.377 -3.257,-9.423 z"
       id="path235"
       style="fill:var(--v-primary-darken2, #2E75AE);fill-opacity:1" />
  </g>
</svg>
