<svg width="56" height="56" viewBox="0 0 56 56"
  xmlns="http://www.w3.org/2000/svg">
  <g>
    <path fill="var(--v-primary-base, #2E75AE)" d="m 8.6551814,44.057554 c 0.3603498,-0.652878 1.2065683,-2.158274 1.8804856,-3.345324 0.673917,-1.18705 2.988293,-5.201439 5.143057,-8.920863 2.154764,-3.719425 5.310426,-9.1259 7.012583,-12.014389 1.702157,-2.888489 3.572196,-6.044964 4.155639,-7.014388 C 27.430391,11.793165 27.953897,11 28.010294,11 c 0.0564,0 1.099108,1.667266 2.317135,3.705036 1.218028,2.03777 3.477681,5.874101 5.021451,8.52518 1.543771,2.651079 4.050926,6.976716 5.571457,9.612526 1.520531,2.63581 3.698759,6.45218 4.840504,8.480822 1.141747,2.028642 2.075902,3.740774 2.075902,3.804739 v 0.116301 H 34.81516 21.793578 l 0.0037,-0.107914 c 0.002,-0.05935 0.803004,-1.5 1.779933,-3.201438 l 1.776235,-3.093526 5.618273,-0.03763 5.618275,-0.03763 -0.533989,-0.971457 C 35.76231,37.260709 33.947866,34.068448 32.023906,30.7011 30.099946,27.33375 28.41152,24.427148 28.27185,24.241982 l -0.253947,-0.336665 -1.364829,2.28835 c -0.750656,1.258591 -3.146114,5.363888 -5.323238,9.122881 -2.177125,3.758992 -4.369345,7.530575 -4.871603,8.381295 l -0.913195,1.546762 H 11.772517 8 Z" />
  </g>
</svg>
